<svg xmlns="http://www.w3.org/2000/svg" fill="none" viewBox="0 0 18 19" class="design-iconfont">
  <g clip-path="url(#e35cs9lmh__clip0_121_20838)" fill="#fff">
    <path d="M1.22457 9.5506C1.22457 7.91547 2.55353 6.58651 4.18866 6.58651H8.909C10.5441 6.58651 11.8731 7.91547 11.8731 9.5506C11.8731 9.91733 11.8058 10.2773 11.6746 10.6205L10.8688 10.3093C10.963 10.067 11.0101 9.81135 11.0101 9.55228C11.0101 8.39491 10.0681 7.45286 8.91068 7.45286L4.18866 7.45118C3.03129 7.45118 2.08924 8.39323 2.08924 9.5506C2.08924 10.1091 2.30793 10.6373 2.70325 11.0326C3.10026 11.4297 3.62848 11.6483 4.18698 11.6483L7.04677 11.6483L7.04677 12.513L4.18698 12.513C3.39633 12.513 2.65278 12.2035 2.09092 11.6416C1.5341 11.0848 1.22457 10.3412 1.22457 9.5506Z"/>
    <path d="M7.50421 8.0622L8.25616 8.49117C8.07953 8.80238 7.98869 9.14556 7.98869 9.51228C7.98869 10.0708 8.20738 10.599 8.60438 10.996C9.00139 11.393 9.52793 11.61 10.0864 11.61L14.8068 11.61C15.3686 11.61 15.8935 11.3913 16.2905 10.9943C16.6875 10.5973 16.9045 10.0708 16.9062 9.5106C16.9062 8.94873 16.6875 8.42388 16.2905 8.02687C15.8935 7.62987 15.3669 7.41286 14.8068 7.41118L11.8023 7.41118L11.8023 6.54651L14.8068 6.54651C15.5991 6.54819 16.3443 6.85604 16.9028 7.41454C17.4613 7.97304 17.7709 8.71995 17.7709 9.5106C17.7709 10.3012 17.463 11.0465 16.9028 11.6067C16.3426 12.1668 15.5974 12.4747 14.8068 12.4747L10.0881 12.4764C9.29746 12.4764 8.55392 12.1668 7.99374 11.6067C7.43187 11.0448 7.12234 10.3012 7.12234 9.5106C7.12402 9.00088 7.25524 8.49958 7.50421 8.0622Z"/>
  </g>
  <defs>
    <clipPath id="e35cs9lmh__clip0_121_20838">
      <path fill="#fff" d="M0 0H18V19H0z"/>
    </clipPath>
  </defs>
</svg>
