<svg xmlns="http://www.w3.org/2000/svg" fill="none" viewBox="0 0 18 18" class="design-iconfont">
  <path d="M5.16 3.43C5.04 3.56 4.89 3.675 4.71 3.785C4.53 3.885 4.365 3.955 4.205 3.995V4.535C4.535 4.44 4.81 4.29 5.025 4.085V7H5.57V3.43H5.16Z" fill="#fff"/>
  <path d="M5.555 10.36C5.175 10.36 4.865 10.485 4.635 10.745C4.41 10.985 4.295 11.305 4.29 11.705H4.835C4.845 11.415 4.905 11.2 5.025 11.05C5.14 10.895 5.31 10.82 5.535 10.82C5.745 10.82 5.91 10.87 6.02 10.97C6.13 11.07 6.185 11.22 6.185 11.42C6.185 11.63 6.1 11.825 5.94 12.005C5.84 12.11 5.67 12.245 5.43 12.415C5.025 12.695 4.755 12.91 4.625 13.065C4.385 13.335 4.27 13.645 4.27 14H6.73V13.52H4.945C5.02 13.325 5.25 13.1 5.635 12.845C5.99 12.605 6.235 12.415 6.375 12.27C6.605 12.015 6.725 11.735 6.725 11.425C6.725 11.11 6.615 10.855 6.4 10.655C6.18 10.455 5.895 10.36 5.555 10.36Z" fill="#fff"/>
  <path fill="#fff" d="M8 4H14V5H8z"/>
  <path fill="#fff" d="M8 11H14V12H8z"/>
  <path fill="#fff" d="M8 6H14V7H8z"/>
  <path fill="#fff" d="M8 13H14V14H8z"/>
</svg>
