<svg xmlns="http://www.w3.org/2000/svg" fill="none" viewBox="0 0 18 18" class="design-iconfont">
  <g clip-path="url(#rknvkbcfl__clip0_121_20816)">
    <path d="M8.45986 14.4295H7.52555H6.54745C6.24335 14.4059 5.94108 14.3651 5.64234 14.3072C5.42583 14.2723 5.21142 14.2269 5 14.1713V12.6493L5.72993 12.8123C6.02844 12.8776 6.33061 12.9275 6.63504 12.9618L7.56935 13.0569H8.44526C9.15169 13.0915 9.85694 12.9705 10.5037 12.7036C10.7515 12.5668 10.9503 12.3647 11.075 12.1229C11.1997 11.8811 11.2447 11.6103 11.2044 11.3447C11.2149 11.0697 11.1804 10.7947 11.1022 10.5293C11.0397 10.3195 10.9067 10.1337 10.7226 9.99936C10.4758 9.82952 10.1992 9.70079 9.90511 9.61887C9.46754 9.45562 9.01888 9.31943 8.56205 9.21119C8.00101 9.10505 7.45313 8.94567 6.92701 8.73555C6.54532 8.58597 6.19832 8.36909 5.90511 8.09686C5.65511 7.84676 5.47467 7.54351 5.37957 7.21356C5.2677 6.819 5.21368 6.41216 5.21898 6.00412C5.20638 5.58669 5.29729 5.17218 5.48464 4.79275C5.67199 4.41331 5.95074 4.07916 6.29927 3.81625C7.2381 3.21045 8.37172 2.92265 9.51096 3.00088C10.0822 3.00327 10.6527 3.03958 11.219 3.1096C11.6611 3.15007 12.0969 3.23668 12.5183 3.3678L12.3723 4.87621C11.9663 4.7326 11.5456 4.62788 11.1168 4.56366C10.5912 4.47962 10.0588 4.4387 9.52556 4.44136C8.87871 4.40649 8.23244 4.5184 7.64234 4.76749C7.42264 4.90699 7.24804 5.09972 7.13741 5.32484C7.02678 5.54997 6.98432 5.79893 7.01461 6.04488C7.0043 6.27971 7.0389 6.51437 7.1168 6.73793C7.17741 6.91936 7.2942 7.0801 7.45256 7.19998C7.65541 7.3536 7.88846 7.46899 8.13869 7.53971C8.43066 7.62125 8.81022 7.71637 9.29197 7.81149C9.87826 7.93513 10.454 8.09864 11.0146 8.30071C11.4431 8.43803 11.8395 8.65018 12.1825 8.9258C12.4768 9.18393 12.6976 9.50616 12.8248 9.86346C12.9639 10.3044 13.0279 10.763 13.0146 11.2224C13.0623 11.6858 12.9813 12.1529 12.7793 12.5789C12.5774 13.0048 12.2613 13.3753 11.8613 13.6549C10.8415 14.2359 9.65261 14.5066 8.45986 14.4295Z" fill="#fff"/>
  </g>
  <path d="M4 9L14 9" stroke="#fff" stroke-width="1.05409" stroke-linecap="square"/>
  <defs>
    <clipPath id="rknvkbcfl__clip0_121_20816">
      <path fill="#fff" transform="translate(5 3)" d="M0 0H8V11.4286H0z"/>
    </clipPath>
  </defs>
</svg>
