<svg xmlns="http://www.w3.org/2000/svg" fill="none" viewBox="0 0 18 19" class="design-iconfont">
  <g clip-path="url(#7dknl6yfu__clip0_121_20842)">
    <path d="M0.224572 9.5506C0.224572 7.91547 1.55353 6.58651 3.18866 6.58651H7.909C9.54412 6.58651 10.8731 7.91547 10.8731 9.5506C10.8731 9.91733 10.8058 10.2773 10.6746 10.6205L9.86879 10.3093C9.963 10.067 10.0101 9.81135 10.0101 9.55228C10.0101 8.39491 9.06805 7.45286 7.91068 7.45286L3.18866 7.45118C2.03129 7.45118 1.08924 8.39323 1.08924 9.5506C1.08924 10.1091 1.30793 10.6373 1.70325 11.0326C2.10026 11.4297 2.62848 11.6483 3.18698 11.6483L6.04677 11.6483L6.04677 12.513L3.18698 12.513C2.39633 12.513 1.65278 12.2035 1.09092 11.6416C0.534102 11.0848 0.224572 10.3412 0.224572 9.5506Z" fill="#fff"/>
    <path d="M14.002 11L17.002 14" stroke="#fff" stroke-width=".8"/>
    <path d="M17.002 11L14.002 14" stroke="#fff" stroke-width=".8"/>
    <path fill-rule="evenodd" clip-rule="evenodd" d="M7.25687 8.49153L6.50491 8.06256C6.25594 8.49994 6.12473 9.00125 6.12305 9.51096C6.12305 10.3016 6.43258 11.0452 6.99444 11.607C7.55462 12.1672 8.29817 12.4767 9.08882 12.4767L13.0027 12.4753V11.6104L9.08714 11.6104C8.52864 11.6104 8.0021 11.3934 7.60509 10.9964C7.20809 10.5994 6.98939 10.0711 6.9894 9.51265C6.9894 9.14592 7.08024 8.80274 7.25687 8.49153ZM15.8489 10.0004H16.7316C16.7581 9.84008 16.7716 9.67652 16.7716 9.51096C16.7716 8.72032 16.462 7.97341 15.9035 7.41491C15.345 6.85641 14.5998 6.54856 13.8075 6.54688H10.803V7.41154L13.8075 7.41154C14.3677 7.41322 14.8942 7.63023 15.2912 8.02724C15.6882 8.42424 15.9069 8.9491 15.9069 9.51096C15.9064 9.67793 15.8868 9.84191 15.8489 10.0004Z" fill="#fff"/>
  </g>
  <defs>
    <clipPath id="7dknl6yfu__clip0_121_20842">
      <path fill="#fff" d="M0 0H18V19H0z"/>
    </clipPath>
  </defs>
</svg>
