<svg xmlns="http://www.w3.org/2000/svg" fill="none" viewBox="0 0 18 18" class="design-iconfont">
  <path d="M5 3.00066H8.51003C9.17309 2.99269 9.83508 3.05645 10.4844 3.1908C10.9443 3.29118 11.3747 3.49639 11.7422 3.79044C12.0459 4.06361 12.2728 4.4115 12.4003 4.79955C12.5408 5.2739 12.605 5.76757 12.5905 6.26207C12.6079 6.82429 12.4714 7.3806 12.1956 7.87085C11.8768 8.35573 11.3851 8.7009 10.8208 8.83611V8.90924C11.1864 8.97483 11.5377 9.10349 11.8592 9.28949C12.1262 9.44806 12.3558 9.6626 12.532 9.91836C12.7089 10.1633 12.8334 10.4421 12.8976 10.7374C12.9628 11.0649 12.9971 11.3979 13 11.7319C13.0017 12.2257 12.9377 12.7175 12.8098 13.1944C12.6918 13.6154 12.4588 13.9952 12.1371 14.2913C11.7756 14.618 11.3382 14.8493 10.8647 14.9641C10.2115 15.1379 9.5367 15.2167 8.86104 15.198H5V3.00066ZM7.76416 8.33886C8.25306 8.34172 8.74162 8.31239 9.22667 8.25109C9.58544 8.21065 9.93303 8.10141 10.2504 7.92934C10.5005 7.78974 10.7001 7.57478 10.8208 7.31508C10.9593 7.00246 11.0244 6.66226 11.0109 6.32058C11.0284 5.95495 10.9634 5.59009 10.8208 5.25295C10.703 4.99859 10.5017 4.79215 10.2504 4.66793C9.93121 4.5099 9.58253 4.42025 9.22667 4.40469C8.73947 4.3803 8.25136 4.3803 7.76416 4.40469H6.57951V8.41197L7.76416 8.33886ZM8.2029 13.8379C8.72106 13.8444 9.23906 13.8151 9.75318 13.7502C10.106 13.7153 10.4462 13.6002 10.7477 13.4138C10.9979 13.2664 11.1853 13.0321 11.2742 12.7556C11.3772 12.4093 11.4265 12.0493 11.4204 11.688C11.4258 11.3639 11.3713 11.0417 11.2596 10.7374C11.1524 10.4711 10.9693 10.2422 10.7331 10.0792C10.434 9.89341 10.1009 9.76911 9.75318 9.71361C9.24234 9.61644 8.72281 9.57234 8.2029 9.58199H6.57951V13.8379H8.2029Z" fill="#fff"/>
</svg>
